<?xml version="1.0" encoding="UTF-8" standalone="no"?>
<svg width="641px" height="577px" viewBox="0 0 641 577" version="1.1" xmlns="http://www.w3.org/2000/svg" xmlns:xlink="http://www.w3.org/1999/xlink" xmlns:sketch="http://www.bohemiancoding.com/sketch/ns">
    <!-- Generator: Sketch 3.2.1 (9971) - http://www.bohemiancoding.com/sketch -->
    <title>path2417</title>
    <desc>Created with Sketch.</desc>
    <defs></defs>
    <g id="Page-1" stroke="none" stroke-width="1" fill="none" fill-rule="evenodd" sketch:type="MSPage">
        <g id="love" sketch:type="MSLayerGroup" transform="translate(0.000000, -72.000000)" fill-opacity="0.736696105" fill="#FF0000">
            <g id="layer1" sketch:type="MSShapeGroup">
                <path d="M295.29747,615.86823 C281.52243,600.43191 247.1268,570.33855 218.86277,548.99412 C135.11867,485.75228 123.72108,476.5999 89.719238,445.29088 C27.03471,387.57071 0.413622,329.58086 0.5048478,250.95124 C0.5493594,212.56739 3.1656152,197.77929 13.914734,175.15398 C32.151433,136.768267 59.014996,108.244667 93.360052,90.799457 C117.68545,78.443675 129.6827,72.9542046 170.30448,72.7296236 C212.79777,72.4947896 221.74311,77.449347 246.73919,91.181459 C277.1637,107.895777 308.47909,143.617167 314.95242,168.99205 L318.95052,184.66445 L328.81015,163.079942 C384.52632,41.107014 562.40851,42.93189 624.31244,166.11153 C643.95011,205.18758 646.10608,288.6247 628.69256,335.6244 C605.97729,396.93377 563.31255,443.67493 464.68622,515.30098 C400.0054,562.27462 326.80148,633.34684 321.70555,643.32901 C315.79007,654.91654 321.42339,645.14491 295.29747,615.86823 L295.29747,615.86823 Z" id="path2417"></path>
            </g>
        </g>
    </g>
</svg>